<mxfile host="app.diagrams.net" agent="Mozilla/5.0 (Windows NT 10.0; Win64; x64) AppleWebKit/537.36 (KHTML, like Gecko) Chrome/128.0.0.0 Safari/537.36" version="24.7.13">
  <diagram name="Page-1" id="tBOWZ95Z5vW0H6DayhTk">
    <mxGraphModel dx="2049" dy="1054" grid="1" gridSize="10" guides="1" tooltips="1" connect="1" arrows="1" fold="1" page="1" pageScale="1" pageWidth="3300" pageHeight="4681" math="0" shadow="0">
      <root>
        <mxCell id="0" />
        <mxCell id="1" parent="0" />
        <mxCell id="HWpPLVayRYIl_35RIBTO-1" value="" style="ellipse;html=1;shape=startState;fillColor=#000000;strokeColor=#ff0000;" parent="1" vertex="1">
          <mxGeometry x="640" y="110" width="40" height="40" as="geometry" />
        </mxCell>
        <mxCell id="HWpPLVayRYIl_35RIBTO-2" value="" style="edgeStyle=orthogonalEdgeStyle;html=1;verticalAlign=bottom;endArrow=open;endSize=8;strokeColor=#ff0000;rounded=0;" parent="1" edge="1">
          <mxGeometry relative="1" as="geometry">
            <mxPoint x="659.75" y="210" as="targetPoint" />
            <mxPoint x="659.75" y="150" as="sourcePoint" />
          </mxGeometry>
        </mxCell>
        <mxCell id="HWpPLVayRYIl_35RIBTO-3" value="START" style="text;html=1;align=center;verticalAlign=middle;resizable=0;points=[];autosize=1;strokeColor=none;fillColor=none;" parent="1" vertex="1">
          <mxGeometry x="630" y="80" width="60" height="30" as="geometry" />
        </mxCell>
        <mxCell id="HWpPLVayRYIl_35RIBTO-6" style="edgeStyle=orthogonalEdgeStyle;rounded=0;orthogonalLoop=1;jettySize=auto;html=1;exitX=0.5;exitY=1;exitDx=0;exitDy=0;" parent="1" source="HWpPLVayRYIl_35RIBTO-4" edge="1">
          <mxGeometry relative="1" as="geometry">
            <mxPoint x="659.9565217391305" y="370" as="targetPoint" />
          </mxGeometry>
        </mxCell>
        <mxCell id="HWpPLVayRYIl_35RIBTO-4" value="Extracts the queries that were registered in the previous day from Query Management System" style="rounded=1;whiteSpace=wrap;html=1;absoluteArcSize=1;arcSize=14;strokeWidth=2;" parent="1" vertex="1">
          <mxGeometry x="575" y="210" width="170" height="100" as="geometry" />
        </mxCell>
        <mxCell id="HWpPLVayRYIl_35RIBTO-8" value="" style="edgeStyle=orthogonalEdgeStyle;rounded=0;orthogonalLoop=1;jettySize=auto;html=1;" parent="1" source="HWpPLVayRYIl_35RIBTO-5" edge="1">
          <mxGeometry relative="1" as="geometry">
            <mxPoint x="659.0000000000002" y="540" as="targetPoint" />
          </mxGeometry>
        </mxCell>
        <mxCell id="HWpPLVayRYIl_35RIBTO-5" value="Identifies queries that are open&lt;br&gt;(Unresolved Queries)" style="rounded=1;whiteSpace=wrap;html=1;absoluteArcSize=1;arcSize=14;strokeWidth=2;" parent="1" vertex="1">
          <mxGeometry x="575" y="370" width="170" height="100" as="geometry" />
        </mxCell>
        <mxCell id="HWpPLVayRYIl_35RIBTO-18" value="" style="ellipse;html=1;shape=endState;fillColor=#000000;strokeColor=#ff0000;" parent="1" vertex="1">
          <mxGeometry x="2310" y="350" width="50" height="50" as="geometry" />
        </mxCell>
        <mxCell id="HWpPLVayRYIl_35RIBTO-19" value="END" style="text;html=1;align=center;verticalAlign=middle;resizable=0;points=[];autosize=1;strokeColor=none;fillColor=none;" parent="1" vertex="1">
          <mxGeometry x="2370" y="360" width="50" height="30" as="geometry" />
        </mxCell>
        <mxCell id="GyeUuBhF5W4lxO7LWPsu-1" value="NEW BUSINESS ADMINISTRATOR" style="text;html=1;align=center;verticalAlign=middle;resizable=0;points=[];autosize=1;strokeColor=none;fillColor=none;" vertex="1" parent="1">
          <mxGeometry x="670" y="158" width="220" height="30" as="geometry" />
        </mxCell>
        <mxCell id="GyeUuBhF5W4lxO7LWPsu-4" value="" style="edgeStyle=orthogonalEdgeStyle;rounded=0;orthogonalLoop=1;jettySize=auto;html=1;" edge="1" parent="1" source="GyeUuBhF5W4lxO7LWPsu-2" target="GyeUuBhF5W4lxO7LWPsu-3">
          <mxGeometry relative="1" as="geometry" />
        </mxCell>
        <mxCell id="GyeUuBhF5W4lxO7LWPsu-2" value="Uploads the information from the notepad in the SMS portal and Sends SMSs to the clients" style="rounded=1;whiteSpace=wrap;html=1;absoluteArcSize=1;arcSize=14;strokeWidth=2;" vertex="1" parent="1">
          <mxGeometry x="570" y="540" width="170" height="100" as="geometry" />
        </mxCell>
        <mxCell id="GyeUuBhF5W4lxO7LWPsu-6" value="" style="edgeStyle=orthogonalEdgeStyle;rounded=0;orthogonalLoop=1;jettySize=auto;html=1;" edge="1" parent="1" source="GyeUuBhF5W4lxO7LWPsu-3" target="GyeUuBhF5W4lxO7LWPsu-5">
          <mxGeometry relative="1" as="geometry" />
        </mxCell>
        <mxCell id="GyeUuBhF5W4lxO7LWPsu-3" value="Extracts report within 48 hours after SMSs were sent and checks where were delivered" style="rounded=1;whiteSpace=wrap;html=1;absoluteArcSize=1;arcSize=14;strokeWidth=2;" vertex="1" parent="1">
          <mxGeometry x="820" y="540" width="170" height="100" as="geometry" />
        </mxCell>
        <mxCell id="GyeUuBhF5W4lxO7LWPsu-8" value="" style="edgeStyle=orthogonalEdgeStyle;rounded=0;orthogonalLoop=1;jettySize=auto;html=1;" edge="1" parent="1" source="GyeUuBhF5W4lxO7LWPsu-5" target="GyeUuBhF5W4lxO7LWPsu-7">
          <mxGeometry relative="1" as="geometry" />
        </mxCell>
        <mxCell id="GyeUuBhF5W4lxO7LWPsu-16" style="edgeStyle=orthogonalEdgeStyle;rounded=0;orthogonalLoop=1;jettySize=auto;html=1;exitX=0.5;exitY=0;exitDx=0;exitDy=0;entryX=0;entryY=0.25;entryDx=0;entryDy=0;" edge="1" parent="1" source="GyeUuBhF5W4lxO7LWPsu-5" target="GyeUuBhF5W4lxO7LWPsu-10">
          <mxGeometry relative="1" as="geometry" />
        </mxCell>
        <mxCell id="GyeUuBhF5W4lxO7LWPsu-5" value="Is SMS Delivered?" style="rhombus;whiteSpace=wrap;html=1;rounded=1;arcSize=14;strokeWidth=2;" vertex="1" parent="1">
          <mxGeometry x="1115" y="505" width="170" height="170" as="geometry" />
        </mxCell>
        <mxCell id="GyeUuBhF5W4lxO7LWPsu-19" value="" style="edgeStyle=orthogonalEdgeStyle;rounded=0;orthogonalLoop=1;jettySize=auto;html=1;" edge="1" parent="1" source="GyeUuBhF5W4lxO7LWPsu-7" target="GyeUuBhF5W4lxO7LWPsu-18">
          <mxGeometry relative="1" as="geometry" />
        </mxCell>
        <mxCell id="GyeUuBhF5W4lxO7LWPsu-7" value="Contacts the alternative contacts to request the right numbers for inclusion&amp;nbsp;" style="whiteSpace=wrap;html=1;rounded=1;arcSize=14;strokeWidth=2;" vertex="1" parent="1">
          <mxGeometry x="1420" y="540" width="200" height="100" as="geometry" />
        </mxCell>
        <mxCell id="GyeUuBhF5W4lxO7LWPsu-11" style="edgeStyle=orthogonalEdgeStyle;rounded=0;orthogonalLoop=1;jettySize=auto;html=1;exitX=1;exitY=0.5;exitDx=0;exitDy=0;entryX=0;entryY=0.5;entryDx=0;entryDy=0;" edge="1" parent="1" source="GyeUuBhF5W4lxO7LWPsu-10" target="HWpPLVayRYIl_35RIBTO-18">
          <mxGeometry relative="1" as="geometry">
            <mxPoint x="2090" y="380" as="targetPoint" />
          </mxGeometry>
        </mxCell>
        <mxCell id="GyeUuBhF5W4lxO7LWPsu-10" value="Sales Department Add Notes in the Administration System" style="whiteSpace=wrap;html=1;rounded=1;arcSize=14;strokeWidth=2;" vertex="1" parent="1">
          <mxGeometry x="1730" y="330" width="200" height="100" as="geometry" />
        </mxCell>
        <mxCell id="GyeUuBhF5W4lxO7LWPsu-13" value="YES" style="text;html=1;align=center;verticalAlign=middle;resizable=0;points=[];autosize=1;strokeColor=none;fillColor=none;" vertex="1" parent="1">
          <mxGeometry x="1200" y="470" width="50" height="30" as="geometry" />
        </mxCell>
        <mxCell id="GyeUuBhF5W4lxO7LWPsu-15" value="NO" style="text;html=1;align=center;verticalAlign=middle;resizable=0;points=[];autosize=1;strokeColor=none;fillColor=none;" vertex="1" parent="1">
          <mxGeometry x="1320" y="560" width="40" height="30" as="geometry" />
        </mxCell>
        <mxCell id="GyeUuBhF5W4lxO7LWPsu-22" style="edgeStyle=orthogonalEdgeStyle;rounded=0;orthogonalLoop=1;jettySize=auto;html=1;exitX=1;exitY=0.5;exitDx=0;exitDy=0;" edge="1" parent="1" source="GyeUuBhF5W4lxO7LWPsu-18">
          <mxGeometry relative="1" as="geometry">
            <mxPoint x="2020" y="590.1428571428571" as="targetPoint" />
          </mxGeometry>
        </mxCell>
        <mxCell id="GyeUuBhF5W4lxO7LWPsu-18" value="Is alternative contact available to provide&amp;nbsp;&lt;br&gt;accurate contact?" style="rhombus;whiteSpace=wrap;html=1;rounded=1;arcSize=14;strokeWidth=2;" vertex="1" parent="1">
          <mxGeometry x="1737" y="515" width="150" height="150" as="geometry" />
        </mxCell>
        <mxCell id="GyeUuBhF5W4lxO7LWPsu-20" style="edgeStyle=orthogonalEdgeStyle;rounded=0;orthogonalLoop=1;jettySize=auto;html=1;exitX=0.5;exitY=0;exitDx=0;exitDy=0;entryX=0.409;entryY=0.98;entryDx=0;entryDy=0;entryPerimeter=0;" edge="1" parent="1" source="GyeUuBhF5W4lxO7LWPsu-18" target="GyeUuBhF5W4lxO7LWPsu-10">
          <mxGeometry relative="1" as="geometry" />
        </mxCell>
        <mxCell id="GyeUuBhF5W4lxO7LWPsu-21" value="YES" style="text;html=1;align=center;verticalAlign=middle;resizable=0;points=[];autosize=1;strokeColor=none;fillColor=none;" vertex="1" parent="1">
          <mxGeometry x="1760" y="485" width="50" height="30" as="geometry" />
        </mxCell>
        <mxCell id="GyeUuBhF5W4lxO7LWPsu-23" value="Communicates to the&amp;nbsp; client to allow&amp;nbsp; inclusions of the alternate contact" style="whiteSpace=wrap;html=1;rounded=1;arcSize=14;strokeWidth=2;" vertex="1" parent="1">
          <mxGeometry x="2020" y="540" width="200" height="100" as="geometry" />
        </mxCell>
        <mxCell id="GyeUuBhF5W4lxO7LWPsu-24" style="edgeStyle=orthogonalEdgeStyle;rounded=0;orthogonalLoop=1;jettySize=auto;html=1;exitX=0.5;exitY=0;exitDx=0;exitDy=0;" edge="1" parent="1" source="GyeUuBhF5W4lxO7LWPsu-23" target="GyeUuBhF5W4lxO7LWPsu-10">
          <mxGeometry relative="1" as="geometry" />
        </mxCell>
        <mxCell id="GyeUuBhF5W4lxO7LWPsu-25" value="NO" style="text;html=1;align=center;verticalAlign=middle;resizable=0;points=[];autosize=1;strokeColor=none;fillColor=none;" vertex="1" parent="1">
          <mxGeometry x="1920" y="560" width="40" height="30" as="geometry" />
        </mxCell>
      </root>
    </mxGraphModel>
  </diagram>
</mxfile>
